<?xml version="1.0" encoding="UTF-8"?>
<svg id="Layer_2" data-name="Layer 2" xmlns="http://www.w3.org/2000/svg" viewBox="0 0 18.34 18.34">
  <defs>
    <style>
      .cls-1 {
        fill: #cfd8dc;
      }
    </style>
  </defs>
  <g id="Layer_1-2" data-name="Layer 1">
    <g>
      <path class="cls-1" d="m12.25,3.67c0-.47,0-.94,0-1.42-.02-1.06-.79-1.99-1.83-2.2C10.27.02,10.13,0,9.98,0c-.53,0-1.07,0-1.6,0-1.14,0-2.09.86-2.25,1.99-.02.13-.02.27-.02.4,0,.92,0,1.83,0,2.75,0,.19,0,.19-.19.19-.45,0-.9-.01-1.36.02-.46.03-.86.21-1.19.52-.43.41-.67.93-.69,1.52-.02.6.18,1.13.61,1.56,1.35,1.36,2.7,2.72,4.06,4.07.99.98,2.63.99,3.63.02,1.37-1.34,2.72-2.71,4.07-4.08.12-.12.23-.25.32-.4.48-.79.37-1.86-.24-2.55-.42-.47-.95-.68-1.57-.68-.38,0-.76,0-1.14,0-.12,0-.17-.04-.17-.16,0-.5,0-1,0-1.5h0Zm-1.56.53c0,.61,0,1.23,0,1.84,0,.49.34.87.85.85.67-.02,1.33,0,2,0,.18,0,.34.04.45.2.2.28.18.57-.06.81-.34.35-.68.69-1.02,1.04-.96.96-1.91,1.92-2.87,2.88-.52.52-1.17.52-1.69,0-1.3-1.31-2.6-2.61-3.91-3.92-.2-.2-.24-.42-.14-.67.1-.25.29-.34.55-.34.66,0,1.33,0,1.99,0,.08,0,.16,0,.24-.02.37-.08.6-.4.6-.82,0-1.22,0-2.44,0-3.66,0-.53.3-.83.82-.83.45,0,.91,0,1.36,0,.54,0,.83.3.83.83,0,.6,0,1.2,0,1.8Z"/>
      <path class="cls-1" d="m9.18,18.33c2,0,4.01-.02,6.01,0,1.35.02,2.58-.82,3.01-2.12.08-.25.14-.52.14-.78,0-.82,0-1.63,0-2.45,0-.44-.3-.75-.75-.78-.39-.03-.73.27-.79.69-.01.08-.02.16-.02.24,0,.7,0,1.39,0,2.09,0,.79-.47,1.36-1.24,1.53-.1.02-.21.02-.31.02-4.04,0-8.08,0-12.12,0-.91,0-1.54-.64-1.55-1.55,0-.71,0-1.42,0-2.13,0-.32-.1-.6-.39-.78-.49-.3-1.16.05-1.16.62,0,.86-.03,1.72,0,2.57.03.76.36,1.41.91,1.95.59.57,1.29.87,2.11.87,2.05,0,4.09,0,6.14,0Z"/>
    </g>
  </g>
</svg>