<?xml version="1.0" encoding="UTF-8"?>
<svg id="Isolation_Mode" data-name="Isolation Mode" xmlns="http://www.w3.org/2000/svg" viewBox="0 0 38.32 41.93">
  <defs>
    <style>
      .cls-1 {
        fill: #808184;
      }

      .cls-2 {
        fill: #eceff1;
      }

      .cls-3 {
        fill: #58585a;
      }

      .cls-4 {
        fill: #00adee;
      }
    </style>
  </defs>
  <path class="cls-4" d="m38.31,20.98c0-3.36,0-6.73,0-10.09,0-.33-.11-.54-.4-.7C31.84,6.85,25.77,3.51,19.71.16c-.4-.22-.71-.21-1.1,0C12.56,3.51,6.51,6.84.46,10.16.13,10.34,0,10.56,0,10.94,0,17.61,0,24.29,0,30.97c0,.37.13.6.45.78,6.09,3.34,12.17,6.69,18.24,10.04.32.18.58.19.91.01,6.1-3.37,12.2-6.72,18.31-10.08.29-.16.41-.36.41-.69,0-3.35,0-6.7,0-10.06Zm-.96,9.6c0,.3-.1.45-.36.58-5.8,3.18-11.59,6.37-17.38,9.57-.34.19-.58.19-.92,0-5.73-3.17-11.48-6.34-17.22-9.48-.38-.21-.51-.43-.51-.86.02-3.15.01-6.29.01-9.44s0-6.41,0-9.62c0-.3.1-.45.35-.59C6.94,7.67,12.57,4.59,18.16,1.46c.75-.42,1.27-.41,2.01,0,5.59,3.13,11.22,6.2,16.84,9.29.25.14.35.29.35.59,0,6.41,0,12.83,0,19.24Z"/>
  <path class="cls-1" d="m36.08,11.62c-1.4.77-2.81,1.55-4.21,2.32-1.02.56-2.05,1.12-3.08,1.68h0c.13.29.17.6.16.92,0,1.16,0,2.32,0,3.48,0,.59-.26,1-.78,1.28-2.72,1.48-5.43,2.96-8.15,4.45-.28.15-.56.27-.88.32v2.67c.98-.52,1.96-1.04,2.93-1.57,1.62-.88,3.24-1.78,4.87-2.66.68-.37,1.51-.13,1.85.52.34.66.1,1.33-.63,1.73-2.71,1.49-5.43,2.97-8.14,4.46-.28.15-.57.27-.88.31,0,2.54,0,5.09,0,7.63,0,.15.06.32-.08.44h0s0,0,0,0c.14.11.22-.03.32-.08,5.48-3.01,10.95-6.02,16.42-9.03.24-.13.33-.28.33-.57,0-5.97,0-11.95,0-17.92,0-.13.04-.27-.05-.39Z"/>
  <polygon class="cls-3" points="2.2 11.62 2.2 11.62 2.2 11.62 2.2 11.62"/>
  <path class="cls-3" d="m19.15,39.16c0-2.54,0-5.09,0-7.63-.37-.03-.69-.2-1.01-.37-2.68-1.47-5.36-2.94-8.04-4.41-.52-.28-.76-.69-.76-1.29,0-3.01,0-6.02,0-9.03,0-.29.07-.55.17-.81-2.43-1.33-4.87-2.67-7.3-4-.07.12-.04.26-.04.39,0,5.97,0,11.95,0,17.92,0,.28.08.43.33.56,2.65,1.45,5.3,2.91,7.94,4.36,2.88,1.58,5.76,3.16,8.64,4.75h0c.14-.13.08-.29.08-.44Z"/>
  <path class="cls-4" d="m10.47,14.93c2.65-1.46,5.31-2.92,7.96-4.38.48-.27.96-.27,1.45,0,2.79,1.54,5.58,3.08,8.38,4.61.22.12.38.29.54.47,1.03-.56,2.05-1.12,3.08-1.68,1.41-.77,2.81-1.55,4.21-2.32-.06-.11-.19-.15-.29-.2-5.44-3-10.88-5.99-16.32-8.99-.24-.13-.41-.13-.66,0-4.57,2.53-9.15,5.04-13.72,7.56-.97.54-1.96,1.03-2.9,1.63,0,0,0,0,0,0h0c2.43,1.33,4.87,2.67,7.3,4,.25-.33.61-.5.96-.69Z"/>
  <path class="cls-2" d="m28.26,15.15c-2.79-1.53-5.59-3.07-8.38-4.61-.49-.27-.96-.26-1.45,0-2.65,1.46-5.31,2.92-7.96,4.38-.35.19-.71.36-.96.69-.11.26-.17.52-.17.81,0,3.01.01,6.02,0,9.03,0,.6.24,1.01.76,1.29,2.68,1.46,5.37,2.93,8.04,4.41.32.18.64.34,1.01.37.32-.04.6-.16.88-.31,2.71-1.49,5.43-2.97,8.14-4.46.73-.4.97-1.07.63-1.73-.34-.65-1.17-.89-1.85-.52-1.62.88-3.24,1.78-4.87,2.66-.98.53-1.96,1.05-2.94,1.57-.73-.32-1.41-.74-2.11-1.12-1.57-.85-3.14-1.72-4.71-2.57-.25-.13-.36-.28-.36-.58.01-2.37,0-4.74,0-7.11,0-.12-.07-.27.08-.36h0s0,0,0,0c1.04-.64,2.12-1.19,3.19-1.78,1.21-.68,2.43-1.34,3.65-2.01.15-.09.28-.14.46-.04,2.26,1.25,4.53,2.5,6.79,3.75.04.02.07.06.1.09h0s0,0,0,0h0c.09.76.01,1.52.04,2.27,0,.19-.16.23-.28.29-2.03,1.11-4.06,2.22-6.1,3.33-.25.14-.51.27-.77.4-.2.12-.39.23-.59.35-.56.31-.82.79-.74,1.32.09.56.5.95,1.12,1.07.07.01.14.02.21.04.31-.05.6-.17.88-.32,2.71-1.49,5.43-2.97,8.15-4.45.52-.28.78-.69.78-1.28,0-1.16,0-2.32,0-3.48,0-.32-.03-.63-.16-.92h0c-.16-.18-.32-.35-.54-.47Z"/>
  <polygon class="cls-3" points="12.06 17.01 12.06 17.01 12.06 17.01 12.06 17.01"/>
  <path class="cls-3" d="m18.94,26.05c-.62-.12-1.03-.51-1.12-1.07-.09-.53.18-1.01.74-1.32.2-.11.39-.23.59-.35,0-.68,0-1.37,0-2.05,0-.13.02-.27-.07-.38-2.17-1.19-4.35-2.39-6.52-3.58-.17-.09-.33-.19-.5-.29-.15.09-.08.24-.08.36,0,2.37,0,4.74,0,7.11,0,.3.11.45.36.58,1.57.85,3.14,1.72,4.71,2.57.7.38,1.38.8,2.11,1.12v-2.67c-.07-.01-.14-.02-.21-.04Z"/>
  <polygon class="cls-4" points="26.25 17.01 26.25 17.01 26.25 17.01 26.25 17.01"/>
  <path class="cls-4" d="m12.56,17.29c2.17,1.19,4.35,2.39,6.52,3.58.73-.26,1.37-.71,2.05-1.07,1.71-.92,3.41-1.86,5.12-2.8-.03-.03-.06-.07-.1-.09-2.26-1.25-4.53-2.49-6.79-3.75-.18-.1-.31-.05-.46.04-1.21.67-2.44,1.34-3.65,2.01-1.06.59-2.15,1.14-3.19,1.78,0,0,0,0,0,0h0c.17.1.33.2.5.29Z"/>
  <path class="cls-1" d="m21.13,19.81c-.68.36-1.32.81-2.05,1.07.09.12.07.25.07.38,0,.68,0,1.37,0,2.05.26-.13.52-.26.77-.4,2.03-1.11,4.07-2.22,6.1-3.33.12-.07.28-.1.28-.29-.03-.76.05-1.52-.04-2.27h0s0,0,0,0c-1.7.93-3.4,1.88-5.12,2.8Z"/>
</svg>