<?xml version="1.0" encoding="UTF-8"?>
<svg id="Isolation_Mode" data-name="Isolation Mode" xmlns="http://www.w3.org/2000/svg" viewBox="0 0 43.7 43.27">
  <defs>
    <style>
      .cls-1 {
        fill: #e9d6b3;
      }
    </style>
  </defs>
  <path class="cls-1" d="m40.47,16.82v-6.08l-5.04-2.97-2.57-4.91h-6.37l-4.66-2.85-4.66,2.85h-6.37l-2.57,4.91-5.04,2.97v6.08l-3.23,4.82,3.23,4.82v6.08l5.04,2.97,2.57,4.91h6.37l4.66,2.85,4.66-2.85h6.37l2.57-4.91,5.04-2.97v-6.08l3.23-4.82-3.23-4.82ZM18.3,7.75l2.03-3.41c-.18.91,1.28,2.12,2.11,2.73.3.22.37.63.15.94l-2.26,3.18c-.13-1.02-1.23-2.04-1.87-2.56-.26-.21-.33-.58-.16-.87Zm-6.52,23.51c-1.4-2.3-.46-6.93,1.73-11.17-.96.09-1.99.43-3.13,1.16,0,0,.32-1.08,1.77-1.77,0,0,.84-1.21,2.71-1.7,2.36-3.58,5.56-6.44,8.85-6.58,1.87-.08,3.6,1.21,4.24,2.97.53,1.46-.18,4.54-2.84,6.63-4.31,3.38-7.04-.68-10.99-.73-1.19,2.59-1.79,5.25-1.58,6.64.44,2.98,3.86,4.37,8.55,1.65,4.69-2.72,9.12-6.65,12.03-3.1,0,0-1.21-.96-3.42,0-4.5,1.96-13.81,12.79-17.92,6.02Zm17.73-1.33c-3.1,3.48-6.9,6.52-10.2,5.57,0,0-2.6,0-3.17-1.14,0,0,5.07.57,10.01-4.5,4.94-5.07,8.49-4.5,9.12-2.28,0,0-2.66-1.14-5.76,2.34Z"/>
</svg>