<?xml version="1.0" encoding="UTF-8"?>
<svg id="Layer_2" data-name="Layer 2" xmlns="http://www.w3.org/2000/svg" viewBox="0 0 28.67 28.91">
  <defs>
    <style>
      .cls-1 {
        fill: #f45b83;
      }
    </style>
  </defs>
  <g id="Layer_1-2" data-name="Layer 1">
    <g>
      <path class="cls-1" d="m28.59,14.4c-.05,2.52.28,5.05-.15,7.55-.67,3.87-3.37,6.41-7.27,6.7-4.58.34-9.17.36-13.75,0C3.14,28.3.23,25.22.09,20.77-.04,16.49-.03,12.2.11,7.91.25,3.67,3.02.76,7.32.34c4.72-.46,9.48-.46,14.19,0,4.23.42,6.87,3.45,7.06,7.73.1,2.1.02,4.21.02,6.32Zm-14.3,11.48s0,0,0-.01c2.03,0,4.06.06,6.09-.01,2.91-.1,4.91-1.72,5.17-4.23.47-4.61.42-9.23.06-13.84-.22-2.8-1.7-4.27-4.52-4.61-3.59-.43-7.21-.14-10.81-.19-1.13-.02-2.26.09-3.36.34-2.24.5-3.58,1.9-3.82,4.16-.46,4.35-.36,8.72-.13,13.06.2,3.67,1.87,5.12,5.79,5.32,1.84.09,3.68.02,5.52.02Z"/>
      <path class="cls-1" d="m14.26,21.92c-4.06-.02-7.42-3.39-7.41-7.42.01-4.07,3.44-7.54,7.46-7.54,4.08,0,7.56,3.51,7.51,7.6-.05,4.12-3.41,7.39-7.56,7.37Zm0-2.92c2.9-.1,4.8-2.11,4.66-4.92-.12-2.38-2.32-4.26-4.87-4.15-2.46.1-4.3,2.17-4.21,4.76.08,2.39,2.14,4.39,4.42,4.31Z"/>
      <path class="cls-1" d="m19.99,6.8c.03-1,.84-1.83,1.77-1.82.99.01,1.89.91,1.89,1.88,0,1-.87,1.84-1.89,1.83-1.07-.01-1.8-.79-1.77-1.89Z"/>
    </g>
  </g>
</svg>