<?xml version="1.0" encoding="UTF-8"?>
<svg id="Isolation_Mode" data-name="Isolation Mode" xmlns="http://www.w3.org/2000/svg" xmlns:xlink="http://www.w3.org/1999/xlink" viewBox="0 0 57.84 57.88">
  <defs>
    <style>
      .cls-1 {
        fill: url(#linear-gradient);
      }
    </style>
    <linearGradient id="linear-gradient" x1="-2.03" y1="13.63" x2="57.99" y2="48.29" gradientUnits="userSpaceOnUse">
      <stop offset="0" stop-color="#eceff1"/>
      <stop offset="1" stop-color="#cfd8dc"/>
    </linearGradient>
  </defs>
  <path class="cls-1" d="m44.45,57.88c-5.28-.03-9.35-1.44-13.25-3.36-9.65-4.76-17.39-11.76-23.61-20.47-3.27-4.59-5.83-9.54-7.01-15.1C-.3,14.82-.38,10.75,1.82,6.95c1.57-2.71,3.91-4.7,6.53-6.28,2.23-1.35,5.13-.59,6.74,1.47,1.63,2.08,3.23,4.18,4.84,6.27,1.68,2.18,1.65,4.96-.08,7.11-1.25,1.55-2.49,3.1-3.75,4.64-.34.42-.57.79-.33,1.39,3.99,9.53,10.59,16.45,20.19,20.43.79.33,1.31.19,1.93-.33,1.52-1.29,3.07-2.52,4.64-3.74,1.99-1.55,4.84-1.57,6.81-.07,2.1,1.6,4.18,3.22,6.25,4.86,2.6,2.06,2.98,5.43.89,8.02-2.16,2.68-4.38,5.29-7.84,6.41-1.65.54-3.33.78-4.21.75Z"/>
</svg>