<?xml version="1.0" encoding="UTF-8"?>
<svg id="Layer_2" data-name="Layer 2" xmlns="http://www.w3.org/2000/svg" viewBox="0 0 13.51 13.51">
  <defs>
    <style>
      .cls-1 {
        fill: #fff;
      }
    </style>
  </defs>
  <g id="Layer_1-2" data-name="Layer 1">
    <path class="cls-1" d="m3.29,7.61c-.81,0-1.62,0-2.43,0-.67,0-1.07-.7-.74-1.28.16-.28.42-.42.75-.42,1.21,0,2.42,0,3.64,0,.41,0,.83,0,1.24,0q.16,0,.16-.16c0-1.62,0-3.24,0-4.87,0-.34.14-.61.44-.77.57-.32,1.26.09,1.26.74,0,1.62,0,3.24,0,4.87q0,.19.19.19c1.61,0,3.23,0,4.84,0,.39,0,.7.22.82.56.2.57-.2,1.14-.81,1.15-1.57,0-3.13,0-4.7,0q-.35,0-.35.34c0,1.56,0,3.12,0,4.68,0,.4-.22.71-.58.83-.56.18-1.12-.21-1.12-.8,0-1.38,0-2.77,0-4.15,0-.26,0-.51,0-.77,0-.11-.03-.14-.14-.14-.83,0-1.65,0-2.48,0Z"/>
  </g>
</svg>