<?xml version="1.0" encoding="UTF-8"?>
<svg id="Layer_2" data-name="Layer 2" xmlns="http://www.w3.org/2000/svg" viewBox="0 0 33.16 27.45">
  <defs>
    <style>
      .cls-1 {
        fill: #4ecdf9;
      }
    </style>
  </defs>
  <g id="Layer_1-2" data-name="Layer 1">
    <path class="cls-1" d="m33.16,2c-.14,1.67-.37,3.35-.6,5-.88,5.76-1.81,11.53-2.86,17.27-.19.91-.4,1.79-.98,2.53-.33.44-.74.65-1.3.65-1.14.02-2.05-.53-2.95-1.12-2.77-1.88-5.53-3.74-8.3-5.63-.35-.23-.7-.49-1.02-.77-.91-.84-.95-1.53-.16-2.49.53-.65,1.16-1.23,1.79-1.81,2.53-2.42,5.16-4.77,7.6-7.3.23-.21.42-.46.63-.72.16-.19.14-.42,0-.63-.14-.21-.35-.28-.58-.21-.16.05-.33.12-.46.21-1.16.72-2.3,1.44-3.44,2.18-3.28,2.18-6.55,4.39-9.86,6.55-1.12.74-2.37,1-3.74.72-1.88-.42-3.7-1.02-5.51-1.6-.33-.09-.63-.23-.91-.44-.63-.44-.67-.98-.12-1.51.44-.42,1-.67,1.56-.93,3.44-1.49,6.9-3,10.37-4.49,5.35-2.28,10.69-4.6,16.15-6.69C29.49.4,30.51-.02,31.63,0c.74,0,1.21.37,1.42,1.05.09.33.12.63.12.95Z"/>
  </g>
</svg>