<?xml version="1.0" encoding="UTF-8"?>
<svg id="Layer_2" data-name="Layer 2" xmlns="http://www.w3.org/2000/svg" viewBox="0 0 16.02 16.01">
  <defs>
    <style>
      .cls-1 {
        fill: #cfd8dc;
      }
    </style>
  </defs>
  <g id="Layer_1-2" data-name="Layer 1">
    <g>
      <path class="cls-1" d="m8.01,16.01c4.4.02,8.01-3.6,8.01-8C16.02,3.61,12.4,0,7.99,0,3.6,0,0,3.62,0,8.02c0,4.39,3.62,8.01,8.01,7.98Zm6.64-8.19c0,.7-.06,1.17-.17,1.64-.34,1.49-1.1,2.73-2.29,3.7-.22.18-.22.17-.29-.1-.3-1.15-.96-2.03-2.01-2.59-1.21-.64-2.46-.66-3.68-.05-1.15.58-1.86,1.52-2.13,2.78-.02.1-.05.12-.14.05-.36-.28-.69-.58-.98-.93-1.27-1.53-1.8-3.29-1.52-5.26.23-1.62.97-2.98,2.21-4.05,1.49-1.29,3.23-1.81,5.19-1.59,1.41.16,2.64.74,3.68,1.71,1.41,1.32,2.12,2.97,2.14,4.69Zm-6.73,6.83c-.11,0-.29-.01-.47-.03-.69-.05-1.36-.22-2-.48-.07-.03-.11-.07-.1-.15.02-.16.02-.31.05-.47.26-1.42,1.62-2.37,3.05-2.13,1.23.21,2.18,1.3,2.2,2.55,0,.11-.03.17-.14.21-.81.33-1.65.49-2.59.49Z"/>
      <path class="cls-1" d="m8.01,3.33c-1.49.01-2.68,1.2-2.68,2.68,0,1.51,1.22,2.69,2.69,2.68,1.52,0,2.68-1.23,2.67-2.68,0-1.5-1.21-2.66-2.68-2.68Zm1.31,2.66c0,.74-.57,1.32-1.29,1.33-.73,0-1.32-.56-1.33-1.28,0-.74.56-1.33,1.29-1.34.74,0,1.33.56,1.33,1.29Z"/>
    </g>
  </g>
</svg>