<?xml version="1.0" encoding="UTF-8"?>
<svg id="Layer_2" data-name="Layer 2" xmlns="http://www.w3.org/2000/svg" viewBox="0 0 29.61 29.59">
  <defs>
    <style>
      .cls-1 {
        fill: #48e580;
      }
    </style>
  </defs>
  <g id="Layer_1-2" data-name="Layer 1">
    <g>
      <path class="cls-1" d="m15.05,0c-1.88-.05-3.71.32-5.46,1.03-1.56.63-2.97,1.51-4.23,2.63-1.4,1.25-2.52,2.71-3.36,4.39-.83,1.66-1.3,3.43-1.45,5.28-.19,2.36.22,4.62,1.14,6.79.21.49.42.99.72,1.44.06.09.08.18.04.3-.36,1.05-.72,2.1-1.07,3.14-.43,1.26-.85,2.51-1.28,3.77-.02.06-.04.12-.06.18-.13.48.12.73.59.59.7-.21,1.39-.44,2.09-.65,1.76-.55,3.52-1.11,5.28-1.67.16-.05.29-.01.42.06,1.27.65,2.61,1.1,4.01,1.35,1.49.27,2.99.29,4.49.11,2.06-.24,3.97-.93,5.73-2,2.13-1.3,3.82-3.02,5.06-5.19.99-1.73,1.62-3.57,1.81-5.55.2-2,.05-3.98-.57-5.91-.63-1.96-1.63-3.71-3-5.25-1.6-1.8-3.55-3.12-5.8-3.97C18.52.27,16.82-.03,15.05,0Zm11.47,14.42c.02,1.25-.22,2.46-.61,3.63-.5,1.47-1.28,2.78-2.33,3.95-1.41,1.57-3.13,2.65-5.11,3.27-1.9.6-3.85.67-5.81.26-1.36-.28-2.61-.83-3.79-1.55-.19-.12-.37-.16-.6-.09-1.09.35-2.18.7-3.27,1.04-.1.03-.21.12-.29.04-.07-.07.02-.18.05-.27.34-.99.67-1.98,1.02-2.97.11-.31.08-.56-.12-.83-.76-1.07-1.31-2.24-1.66-3.51-.43-1.57-.54-3.16-.26-4.75.38-2.16,1.27-4.08,2.75-5.72.96-1.07,2.07-1.94,3.34-2.58,1.8-.91,3.71-1.34,5.73-1.25,1.07.05,2.1.24,3.1.58,2.29.77,4.18,2.12,5.63,4.08,1.47,1.99,2.17,4.23,2.22,6.69Z"/>
      <path class="cls-1" d="m18.92,21.4c1.36,0,2.42-.51,3.22-1.53.48-.61.55-1.36.52-2.11-.02-.37-.27-.58-.58-.73-.68-.33-1.37-.65-2.05-.97-.23-.11-.46-.23-.69-.32-.6-.24-.94-.13-1.34.37-.26.34-.54.68-.81,1.01-.27.32-.28.33-.66.15-.75-.34-1.43-.79-2.06-1.32-.8-.67-1.49-1.44-2.11-2.27-.15-.21-.17-.36.02-.54.26-.25.48-.54.68-.84.29-.43.36-.86.14-1.34-.36-.81-.69-1.64-1.04-2.45-.34-.78-.64-.95-1.48-.84-.45.06-.88.14-1.3.33-.47.21-.79.56-1.03.98-.68,1.22-.79,2.5-.35,3.84.35,1.08.98,1.98,1.63,2.88.87,1.2,1.88,2.27,3.04,3.2,1.5,1.2,3.24,1.89,5.08,2.36.3.08.61.1.91.14.1.01.21.01.26.01Z"/>
    </g>
  </g>
</svg>